<svg width="24" height="24" viewBox="0 0 24 24" fill="none" xmlns="http://www.w3.org/2000/svg">
<path fill-rule="evenodd" clip-rule="evenodd" d="M6 7.5C6 7.22386 6.22386 7 6.5 7H9.59859C10.3771 7 10.9931 7.31301 11.4065 7.80227C11.8107 8.28053 12 8.90008 12 9.5C12 10.0999 11.8107 10.7195 11.4065 11.1977C11.3134 11.308 11.21 11.4092 11.0967 11.5C11.21 11.5908 11.3134 11.692 11.4065 11.8023C11.8107 12.2805 12 12.9001 12 13.5C12 14.0999 11.8107 14.7195 11.4065 15.1977C10.9931 15.687 10.3771 16 9.59859 16H6.5C6.22386 16 6 15.7761 6 15.5V7.5ZM10.6427 12.4477C10.4224 12.187 10.0876 12 9.59859 12H7V15H9.59859C10.0876 15 10.4224 14.813 10.6427 14.5523C10.8724 14.2805 11 13.9001 11 13.5C11 13.0999 10.8724 12.7195 10.6427 12.4477ZM10.6427 8.44773C10.4224 8.18699 10.0876 8 9.59859 8H7V11H9.59859C10.0876 11 10.4224 10.813 10.6427 10.5523C10.8724 10.2805 11 9.90008 11 9.5C11 9.09992 10.8724 8.71947 10.6427 8.44773Z" fill="url(#paint0_radial_196_2411)"/>
<path fill-rule="evenodd" clip-rule="evenodd" d="M15.5 10C13.8432 10 12.5 11.3432 12.5 13C12.5 14.6568 13.8432 16 15.5 16C16.5568 16 17.2399 15.6279 17.6518 15.2476C17.8547 15.0602 17.8673 14.7439 17.68 14.541C17.4926 14.3381 17.1763 14.3255 16.9734 14.5128C16.7411 14.7273 16.2984 15 15.5 15C14.5681 15 13.785 14.3626 13.563 13.5H18C18.2761 13.5 18.5 13.2761 18.5 13C18.5 11.3432 17.1568 10 15.5 10ZM15.5 11C16.4319 11 17.215 11.6374 17.437 12.5H13.563C13.785 11.6374 14.5681 11 15.5 11Z" fill="url(#paint1_radial_196_2411)"/>
<path d="M14 8C13.7239 8 13.5 8.22386 13.5 8.5C13.5 8.77614 13.7239 9 14 9H17C17.2761 9 17.5 8.77614 17.5 8.5C17.5 8.22386 17.2761 8 17 8H14Z" fill="url(#paint2_radial_196_2411)"/>
<path fill-rule="evenodd" clip-rule="evenodd" d="M6 3C4.34315 3 3 4.34315 3 6V18C3 19.6569 4.34315 21 6 21H18C19.6569 21 21 19.6569 21 18V6C21 4.34315 19.6569 3 18 3H6ZM6 4C4.89543 4 4 4.89543 4 6V18C4 19.1046 4.89543 20 6 20H18C19.1046 20 20 19.1046 20 18V6C20 4.89543 19.1046 4 18 4H6Z" fill="url(#paint3_radial_196_2411)"/>
<defs>
<radialGradient id="paint0_radial_196_2411" cx="0" cy="0" r="1" gradientUnits="userSpaceOnUse" gradientTransform="translate(12 12) rotate(90) scale(9)">
<stop stop-color="#FAFAFA"/>
<stop offset="1" stop-color="#D4DFED"/>
</radialGradient>
<radialGradient id="paint1_radial_196_2411" cx="0" cy="0" r="1" gradientUnits="userSpaceOnUse" gradientTransform="translate(12 12) rotate(90) scale(9)">
<stop stop-color="#FAFAFA"/>
<stop offset="1" stop-color="#D4DFED"/>
</radialGradient>
<radialGradient id="paint2_radial_196_2411" cx="0" cy="0" r="1" gradientUnits="userSpaceOnUse" gradientTransform="translate(12 12) rotate(90) scale(9)">
<stop stop-color="#FAFAFA"/>
<stop offset="1" stop-color="#D4DFED"/>
</radialGradient>
<radialGradient id="paint3_radial_196_2411" cx="0" cy="0" r="1" gradientUnits="userSpaceOnUse" gradientTransform="translate(12 12) rotate(90) scale(9)">
<stop stop-color="#FAFAFA"/>
<stop offset="1" stop-color="#D4DFED"/>
</radialGradient>
</defs>
</svg>
