<svg width="24" height="24" viewBox="0 0 24 24" fill="none" xmlns="http://www.w3.org/2000/svg">
<path fill-rule="evenodd" clip-rule="evenodd" d="M21 6.5C21 7.72027 20.3755 8.79468 19.4287 9.42109C20.949 10.1233 22 11.6298 22 13.375V13.5C22 13.7761 21.7761 14 21.5 14C21.2239 14 21 13.7761 21 13.5V13.375C21 11.5374 19.4597 10 17.5 10C15.5443 10 14.0063 11.5311 14 13.3637C15.2372 14.784 16 16.7293 16 18.875V19.5C16 19.7761 15.7761 20 15.5 20C15.2239 20 15 19.7761 15 19.5V18.875C15 14.9641 12.2062 12 9 12C5.79377 12 3 14.9641 3 18.875V19.5C3 19.7761 2.77614 20 2.5 20C2.22386 20 2 19.7761 2 19.5V18.875C2 15.3676 4.03819 12.3957 6.85478 11.3767C5.73972 10.6668 5 9.41977 5 8C5 5.79086 6.79086 4 9 4C11.2091 4 13 5.79086 13 8C13 9.41977 12.2603 10.6668 11.1452 11.3767C11.8498 11.6316 12.5056 12.0087 13.093 12.4858C13.3813 11.1283 14.3164 10.0007 15.5713 9.42109C14.6245 8.79468 14 7.72027 14 6.5C14 4.56701 15.5669 3 17.5 3C19.4331 3 21 4.56701 21 6.5ZM20 6.5C20 7.88072 18.8808 9 17.5 9C16.1192 9 15 7.88072 15 6.5C15 5.11928 16.1192 4 17.5 4C18.8808 4 20 5.11928 20 6.5ZM12 8C12 9.65682 10.6568 11 9 11C7.34315 11 6 9.65682 6 8C6 6.34314 7.34314 5 9 5C10.6568 5 12 6.34315 12 8Z" fill="url(#paint0_radial_196_2370)"/>
<defs>
<radialGradient id="paint0_radial_196_2370" cx="0" cy="0" r="1" gradientUnits="userSpaceOnUse" gradientTransform="translate(12 11.5) rotate(90) scale(8.5 10)">
<stop stop-color="#FAFAFA"/>
<stop offset="1" stop-color="#D4DFED"/>
</radialGradient>
</defs>
</svg>
