<svg width="14" height="14" viewBox="0 0 14 14" fill="none" xmlns="http://www.w3.org/2000/svg">
<path d="M0.853553 0.146447C0.658291 -0.0488155 0.341709 -0.0488155 0.146447 0.146447C-0.0488155 0.341709 -0.0488155 0.658291 0.146447 0.853553L6.29289 7L0.146447 13.1464C-0.0488155 13.3417 -0.0488155 13.6583 0.146447 13.8536C0.341709 14.0488 0.658291 14.0488 0.853553 13.8536L7 7.70711L13.1464 13.8536C13.3417 14.0488 13.6583 14.0488 13.8536 13.8536C14.0488 13.6583 14.0488 13.3417 13.8536 13.1464L7.70711 7L13.8536 0.853553C14.0488 0.658291 14.0488 0.341709 13.8536 0.146447C13.6583 -0.0488155 13.3417 -0.0488155 13.1464 0.146447L7 6.29289L0.853553 0.146447Z" fill="url(#paint0_radial_684_13434)"/>
<defs>
<radialGradient id="paint0_radial_684_13434" cx="0" cy="0" r="1" gradientUnits="userSpaceOnUse" gradientTransform="translate(7 7) rotate(90) scale(7)">
<stop stop-color="#FAFAFA"/>
<stop offset="1" stop-color="#D4DFED"/>
</radialGradient>
</defs>
</svg>
