<svg width="24" height="25" viewBox="0 0 24 25" fill="none" xmlns="http://www.w3.org/2000/svg">
<path d="M12.5 3.83325C12.5 3.55711 12.2761 3.33325 12 3.33325C11.7239 3.33325 11.5 3.55711 11.5 3.83325V15.5479L6.86858 10.4954C6.68198 10.2918 6.3657 10.2781 6.16214 10.4647C5.95858 10.6513 5.94483 10.9676 6.13142 11.1711L12 17.5732L17.8686 11.1711C18.0552 10.9676 18.0414 10.6513 17.8379 10.4647C17.6343 10.2781 17.318 10.2918 17.1314 10.4954L12.5 15.5479V3.83325Z" fill="#070708"/>
<path d="M4 15.8333C4 15.5571 3.77614 15.3333 3.5 15.3333C3.22386 15.3333 3 15.5571 3 15.8333V20.8233C3 21.1049 3.22832 21.3333 3.51 21.3333H20.49C20.7717 21.3333 21 21.1049 21 20.8233V15.8333C21 15.5571 20.7761 15.3333 20.5 15.3333C20.2239 15.3333 20 15.5571 20 15.8333V20.3333H4V15.8333Z" fill="#070708"/>
</svg>
