<svg width="24" height="24" viewBox="0 0 24 24" fill="none" xmlns="http://www.w3.org/2000/svg">
<path d="M6.5 8C6.77614 8 7 8.22386 7 8.5V11H10V8.5C10 8.22386 10.2239 8 10.5 8C10.7761 8 11 8.22386 11 8.5V15.5C11 15.7761 10.7761 16 10.5 16C10.2239 16 10 15.7761 10 15.5V12H7V15.5C7 15.7761 6.77614 16 6.5 16C6.22386 16 6 15.7761 6 15.5V8.5C6 8.22386 6.22386 8 6.5 8Z" fill="url(#paint0_radial_196_8899)"/>
<path d="M13.5 8C13.7761 8 14 8.22386 14 8.5V11H17V8.5C17 8.22386 17.2239 8 17.5 8C17.7761 8 18 8.22386 18 8.5V15.5C18 15.7761 17.7761 16 17.5 16C17.2239 16 17 15.7761 17 15.5V12H14V15.5C14 15.7761 13.7761 16 13.5 16C13.2239 16 13 15.7761 13 15.5V8.5C13 8.22386 13.2239 8 13.5 8Z" fill="url(#paint1_radial_196_8899)"/>
<path fill-rule="evenodd" clip-rule="evenodd" d="M3 6C3 4.34315 4.34315 3 6 3H18C19.6569 3 21 4.34315 21 6V18C21 19.6569 19.6569 21 18 21H6C4.34315 21 3 19.6569 3 18V6ZM4 6C4 4.89543 4.89543 4 6 4H18C19.1046 4 20 4.89543 20 6V18C20 19.1046 19.1046 20 18 20H6C4.89543 20 4 19.1046 4 18V6Z" fill="url(#paint2_radial_196_8899)"/>
<defs>
<radialGradient id="paint0_radial_196_8899" cx="0" cy="0" r="1" gradientUnits="userSpaceOnUse" gradientTransform="translate(12 12) rotate(90) scale(9)">
<stop stop-color="#FAFAFA"/>
<stop offset="1" stop-color="#D4DFED"/>
</radialGradient>
<radialGradient id="paint1_radial_196_8899" cx="0" cy="0" r="1" gradientUnits="userSpaceOnUse" gradientTransform="translate(12 12) rotate(90) scale(9)">
<stop stop-color="#FAFAFA"/>
<stop offset="1" stop-color="#D4DFED"/>
</radialGradient>
<radialGradient id="paint2_radial_196_8899" cx="0" cy="0" r="1" gradientUnits="userSpaceOnUse" gradientTransform="translate(12 12) rotate(90) scale(9)">
<stop stop-color="#FAFAFA"/>
<stop offset="1" stop-color="#D4DFED"/>
</radialGradient>
</defs>
</svg>
