<svg width="24" height="24" viewBox="0 0 24 24" fill="none" xmlns="http://www.w3.org/2000/svg">
<path d="M7.88164 7.83358C8.06637 7.62856 8.04975 7.31276 7.8445 7.12823C7.63926 6.9437 7.32311 6.9603 7.13837 7.16532L7.12837 7.17642C6.94363 7.38144 6.96026 7.69723 7.1655 7.88177C7.37075 8.0663 7.6869 8.04969 7.87164 7.84468L7.88164 7.83358Z" fill="url(#paint0_radial_196_2401)"/>
<path d="M7.5 9.00888C7.77615 9.00888 8 9.23249 8 9.50833V16.5006C8 16.7764 7.77615 17 7.5 17C7.22386 17 7 16.7764 7 16.5006V9.50833C7 9.23249 7.22386 9.00888 7.5 9.00888Z" fill="url(#paint1_radial_196_2401)"/>
<path d="M11 9.50833C11 9.23249 10.7761 9.00888 10.5 9.00888C10.2239 9.00888 10 9.23249 10 9.50833V16.5006C10 16.7764 10.2239 17 10.5 17C10.7761 17 11 16.7764 11 16.5006V13.2542C11 12.4649 11.3099 11.9035 11.7576 11.5308C12.2168 11.1486 12.8482 10.9442 13.5 10.9442C14.1518 10.9442 14.7832 11.1486 15.2424 11.5308C15.6901 11.9035 16 12.4649 16 13.2542V16.5006C16 16.7764 16.2239 17 16.5 17C16.7761 17 17 16.7764 17 16.5006V13.2542C17 12.1705 16.5599 11.3272 15.8826 10.7634C15.2168 10.2092 14.3482 9.94534 13.5 9.94534C12.6518 9.94534 11.7832 10.2092 11.1174 10.7634C11.0774 10.7967 11.0383 10.831 11 10.8662V9.50833Z" fill="url(#paint2_radial_196_2401)"/>
<path fill-rule="evenodd" clip-rule="evenodd" d="M6 3C4.34315 3 3 4.34315 3 6V18C3 19.6569 4.34315 21 6 21H18C19.6569 21 21 19.6569 21 18V6C21 4.34315 19.6569 3 18 3H6ZM6 4C4.89543 4 4 4.89543 4 6V18C4 19.1046 4.89543 20 6 20H18C19.1046 20 20 19.1046 20 18V6C20 4.89543 19.1046 4 18 4H6Z" fill="url(#paint3_radial_196_2401)"/>
<defs>
<radialGradient id="paint0_radial_196_2401" cx="0" cy="0" r="1" gradientUnits="userSpaceOnUse" gradientTransform="translate(12 12) rotate(90) scale(9)">
<stop stop-color="#FAFAFA"/>
<stop offset="1" stop-color="#D4DFED"/>
</radialGradient>
<radialGradient id="paint1_radial_196_2401" cx="0" cy="0" r="1" gradientUnits="userSpaceOnUse" gradientTransform="translate(12 12) rotate(90) scale(9)">
<stop stop-color="#FAFAFA"/>
<stop offset="1" stop-color="#D4DFED"/>
</radialGradient>
<radialGradient id="paint2_radial_196_2401" cx="0" cy="0" r="1" gradientUnits="userSpaceOnUse" gradientTransform="translate(12 12) rotate(90) scale(9)">
<stop stop-color="#FAFAFA"/>
<stop offset="1" stop-color="#D4DFED"/>
</radialGradient>
<radialGradient id="paint3_radial_196_2401" cx="0" cy="0" r="1" gradientUnits="userSpaceOnUse" gradientTransform="translate(12 12) rotate(90) scale(9)">
<stop stop-color="#FAFAFA"/>
<stop offset="1" stop-color="#D4DFED"/>
</radialGradient>
</defs>
</svg>
