<svg width="24" height="24" viewBox="0 0 24 24" fill="none" xmlns="http://www.w3.org/2000/svg">
<path fill-rule="evenodd" clip-rule="evenodd" d="M11.6281 5.27967C12.6209 4.5765 14 5.28021 14 6.48999V17.51C14 18.7198 12.6209 19.4235 11.6281 18.7203L6.47015 15.0671C6.38535 15.007 6.28375 14.9747 6.17953 14.9747H3.5C2.67157 14.9747 2 14.3088 2 13.4874V10.5126C2 9.69118 2.67157 9.02527 3.5 9.02527H6.17953C6.28375 9.02527 6.38535 8.99298 6.47015 8.93292L11.6281 5.27967ZM13 6.48999C13 6.08673 12.5403 5.85216 12.2094 6.08655L7.05139 9.7398C6.79699 9.91998 6.49217 10.0168 6.17953 10.0168H3.5C3.22386 10.0168 3 10.2388 3 10.5126V13.4874C3 13.7612 3.22386 13.9832 3.5 13.9832H6.17953C6.49217 13.9832 6.79699 14.08 7.05139 14.2602L12.2094 17.9135C12.5403 18.1478 13 17.9133 13 17.51V6.48999Z" fill="white" fill-opacity="0.35"/>
<path d="M17.5102 9.72355C17.3118 9.28355 17.0898 8.94238 16.9194 8.71332C16.884 8.66588 16.8436 8.6169 16.8021 8.56659C16.582 8.30005 16.331 7.99603 16.6464 7.68329C17.0791 7.25427 17.4663 7.77683 17.6993 8.09131L17.724 8.12453C17.929 8.40007 18.1904 8.80259 18.4231 9.31891C18.737 10.0152 19 10.9211 19 12.0002C19 13.1274 18.713 14.0656 18.3808 14.7733C18.1521 15.2607 17.9013 15.6404 17.7056 15.9004C17.5963 16.0456 17.4828 16.1886 17.3535 16.3171C17.1583 16.5107 16.8417 16.5107 16.6464 16.3171C16.4508 16.1231 16.4584 15.8104 16.6468 15.6155C16.7395 15.5189 16.8238 15.4141 16.9042 15.3073C17.0664 15.0918 17.2793 14.7703 17.4742 14.355C17.7567 13.753 18 12.9574 18 12.0002C18 11.0838 17.777 10.3156 17.5102 9.72355Z" fill="white" fill-opacity="0.35"/>
</svg>
