<svg width="32" height="32" viewBox="0 0 32 32" fill="none" xmlns="http://www.w3.org/2000/svg">
<g clip-path="url(#clip0_513_10879)">
<path fill-rule="evenodd" clip-rule="evenodd" d="M18 10.49C18 9.28021 16.6209 8.5765 15.6281 9.27967L10.4702 12.9329C10.3854 12.993 10.2837 13.0253 10.1795 13.0253H7.5C6.67157 13.0253 6 13.6912 6 14.5126V17.4874C6 18.3088 6.67157 18.9747 7.5 18.9747H10.1795C10.2837 18.9747 10.3854 19.007 10.4702 19.0671L15.6281 22.7203C16.6209 23.4235 18 22.7198 18 21.51V10.49ZM16.2094 10.0865C16.5403 9.85216 17 10.0867 17 10.49V21.51C17 21.9133 16.5403 22.1478 16.2094 21.9135L11.0514 18.2602C10.797 18.08 10.4922 17.9832 10.1795 17.9832H7.5C7.22386 17.9832 7 17.7612 7 17.4874V14.5126C7 14.2388 7.22386 14.0168 7.5 14.0168H10.1795C10.4922 14.0168 10.797 13.92 11.0514 13.7398L16.2094 10.0865Z" fill="url(#paint0_radial_513_10879)"/>
<path d="M20.8536 13.1705C20.6583 12.9769 20.3417 12.9769 20.1464 13.1705C19.9512 13.3641 19.9512 13.678 20.1464 13.8716L22.2929 16L20.1464 18.1284C19.9512 18.322 19.9512 18.6359 20.1464 18.8295C20.3417 19.0231 20.6583 19.0231 20.8536 18.8295L23 16.7012L25.1464 18.8295C25.3417 19.0231 25.6583 19.0231 25.8536 18.8295C26.0488 18.6359 26.0488 18.322 25.8536 18.1284L23.7071 16L25.8536 13.8716C26.0488 13.678 26.0488 13.3641 25.8536 13.1705C25.6583 12.9769 25.3417 12.9769 25.1464 13.1705L23 15.2988L20.8536 13.1705Z" fill="url(#paint1_radial_513_10879)"/>
</g>
<defs>
<radialGradient id="paint0_radial_513_10879" cx="0" cy="0" r="1" gradientUnits="userSpaceOnUse" gradientTransform="translate(16 16) rotate(90) scale(7 10)">
<stop stop-color="#FAFAFA"/>
<stop offset="1" stop-color="#D4DFED"/>
</radialGradient>
<radialGradient id="paint1_radial_513_10879" cx="0" cy="0" r="1" gradientUnits="userSpaceOnUse" gradientTransform="translate(16 16) rotate(90) scale(7 10)">
<stop stop-color="#FAFAFA"/>
<stop offset="1" stop-color="#D4DFED"/>
</radialGradient>
<clipPath id="clip0_513_10879">
<path d="M0 16C0 7.16344 7.16344 0 16 0C24.8366 0 32 7.16344 32 16C32 24.8366 24.8366 32 16 32C7.16344 32 0 24.8366 0 16Z" fill="white"/>
</clipPath>
</defs>
</svg>
