<svg width="32" height="32" viewBox="0 0 32 32" fill="none" xmlns="http://www.w3.org/2000/svg">
<g clip-path="url(#clip0_284_7286)">
<path fill-rule="evenodd" clip-rule="evenodd" d="M9 8.63691C9 8.14415 9.54808 7.8386 9.98137 8.08982L22.6814 15.4529C23.1062 15.6992 23.1062 16.3008 22.6814 16.5471L9.98137 23.9102C9.54808 24.1614 9 23.8558 9 23.3631V8.63691ZM10 9.25653L21.6314 16L10 22.7435V9.25653Z" fill="url(#paint0_radial_284_7286)"/>
</g>
<defs>
<radialGradient id="paint0_radial_284_7286" cx="0" cy="0" r="1" gradientUnits="userSpaceOnUse" gradientTransform="translate(16 16) rotate(90) scale(8 7)">
<stop stop-color="#FAFAFA"/>
<stop offset="1" stop-color="#D4DFED"/>
</radialGradient>
<clipPath id="clip0_284_7286">
<path d="M0 16C0 7.16344 7.16344 0 16 0C24.8366 0 32 7.16344 32 16C32 24.8366 24.8366 32 16 32C7.16344 32 0 24.8366 0 16Z" fill="white"/>
</clipPath>
</defs>
</svg>
