<svg width="24" height="24" viewBox="0 0 24 24" fill="none" xmlns="http://www.w3.org/2000/svg">
<path fill-rule="evenodd" clip-rule="evenodd" d="M10 3C8.89543 3 8 3.89543 8 5V7H5C3.89543 7 3 7.89543 3 9V19C3 20.1046 3.89543 21 5 21H19C20.1046 21 21 20.1046 21 19V9C21 7.89543 20.1046 7 19 7H16V5C16 3.89543 15.1046 3 14 3H10ZM15 7V5C15 4.44772 14.5523 4 14 4H10C9.44772 4 9 4.44772 9 5V7H15ZM5 8C4.44772 8 4 8.44772 4 9V19C4 19.5523 4.44772 20 5 20H19C19.5523 20 20 19.5523 20 19V9C20 8.44772 19.5523 8 19 8H5Z" fill="url(#paint0_radial_196_2353)"/>
<defs>
<radialGradient id="paint0_radial_196_2353" cx="0" cy="0" r="1" gradientUnits="userSpaceOnUse" gradientTransform="translate(12 12) rotate(90) scale(9)">
<stop stop-color="#FAFAFA"/>
<stop offset="1" stop-color="#D4DFED"/>
</radialGradient>
</defs>
</svg>
