<svg width="32" height="32" viewBox="0 0 32 32" fill="none" xmlns="http://www.w3.org/2000/svg">
<g clip-path="url(#clip0_284_7281)">
<path d="M19 16C19 16.3589 18.8077 16.6902 18.4961 16.8682L14.9961 18.8682C14.6866 19.0451 14.3064 19.0438 13.9981 18.8649C13.6898 18.686 13.5 18.3565 13.5 18V14C13.5 13.6435 13.6898 13.314 13.9981 13.1351C14.3064 12.9562 14.6866 12.9549 14.9961 13.1318L18.4961 15.1318C18.8077 15.3098 19 15.6411 19 16Z" fill="url(#paint0_radial_284_7281)"/>
<path fill-rule="evenodd" clip-rule="evenodd" d="M25.0945 21.8977C26 20.9794 26 19.5521 26 16.6976V15.3024C26 12.4479 26 11.0206 25.0945 10.1023C24.189 9.18392 22.7634 9.14417 19.9123 9.06467C18.5613 9.02699 17.1812 9 16 9C14.8188 9 13.4387 9.02699 12.0877 9.06467C9.23656 9.14417 7.81099 9.18392 6.90549 10.1023C6 11.0206 6 12.4479 6 15.3024V16.6976C6 19.5521 6 20.9794 6.90548 21.8977C7.81092 22.816 9.23681 22.8558 12.0876 22.9353C13.4387 22.973 14.8188 23 16 23C17.1812 23 18.5617 22.973 19.9128 22.9353C22.7636 22.8558 24.189 22.816 25.0945 21.8977ZM23.0721 21.7441C23.785 21.6278 24.1349 21.4466 24.3824 21.1956C24.626 20.9485 24.7986 20.6012 24.896 19.8883C24.9978 19.1433 25 18.1533 25 16.6976V15.3024C25 13.8466 24.9978 12.8567 24.896 12.1116C24.7986 11.3988 24.626 11.0514 24.3824 10.8044C24.1349 10.5533 23.785 10.3721 23.0721 10.2559C22.3279 10.1345 21.338 10.1048 19.8844 10.0643C18.5377 10.0267 17.1679 10 16 10C14.8321 10 13.4624 10.0267 12.1156 10.0643C10.662 10.1048 9.6721 10.1345 8.9279 10.2559C8.21496 10.3721 7.8651 10.5533 7.61756 10.8044C7.37395 11.0514 7.20138 11.3988 7.10398 12.1116C7.00219 12.8567 7 13.8466 7 15.3024V16.6976C7 18.1533 7.00218 19.1433 7.10398 19.8883C7.20138 20.6012 7.37399 20.9485 7.61756 21.1956C7.8651 21.4466 8.21494 21.6278 8.92787 21.7441C9.67206 21.8654 10.662 21.8952 12.1155 21.9357C13.4623 21.9733 14.8321 22 16 22C17.1679 22 18.5377 21.9733 19.8845 21.9357C21.3381 21.8952 22.3279 21.8654 23.0721 21.7441Z" fill="url(#paint1_radial_284_7281)"/>
</g>
<defs>
<radialGradient id="paint0_radial_284_7281" cx="0" cy="0" r="1" gradientUnits="userSpaceOnUse" gradientTransform="translate(16 16) rotate(90) scale(7 10)">
<stop stop-color="#FAFAFA"/>
<stop offset="1" stop-color="#D4DFED"/>
</radialGradient>
<radialGradient id="paint1_radial_284_7281" cx="0" cy="0" r="1" gradientUnits="userSpaceOnUse" gradientTransform="translate(16 16) rotate(90) scale(7 10)">
<stop stop-color="#FAFAFA"/>
<stop offset="1" stop-color="#D4DFED"/>
</radialGradient>
<clipPath id="clip0_284_7281">
<path d="M0 16C0 7.16344 7.16344 0 16 0C24.8366 0 32 7.16344 32 16C32 24.8366 24.8366 32 16 32C7.16344 32 0 24.8366 0 16Z" fill="white"/>
</clipPath>
</defs>
</svg>
