<svg width="32" height="32" viewBox="0 0 32 32" fill="none" xmlns="http://www.w3.org/2000/svg">
<g clip-path="url(#clip0_284_7291)">
<path fill-rule="evenodd" clip-rule="evenodd" d="M15.6281 9.27967C16.6209 8.5765 18 9.28021 18 10.49V21.51C18 22.7198 16.6209 23.4235 15.6281 22.7203L10.4702 19.0671C10.3854 19.007 10.2837 18.9747 10.1795 18.9747H7.5C6.67157 18.9747 6 18.3088 6 17.4874V14.5126C6 13.6912 6.67157 13.0253 7.5 13.0253H10.1795C10.2837 13.0253 10.3854 12.993 10.4702 12.9329L15.6281 9.27967ZM17 10.49C17 10.0867 16.5403 9.85216 16.2094 10.0865L11.0514 13.7398C10.797 13.92 10.4922 14.0168 10.1795 14.0168H7.5C7.22386 14.0168 7 14.2388 7 14.5126V17.4874C7 17.7612 7.22386 17.9832 7.5 17.9832H10.1795C10.4922 17.9832 10.797 18.08 11.0514 18.2602L16.2094 21.9135C16.5403 22.1478 17 21.9133 17 21.51V10.49Z" fill="url(#paint0_radial_284_7291)"/>
<path d="M21.5102 13.7236C21.3118 13.2836 21.0898 12.9424 20.9194 12.7133C20.884 12.6659 20.8436 12.6169 20.8021 12.5666C20.582 12.3 20.331 11.996 20.6464 11.6833C21.0791 11.2543 21.4663 11.7768 21.6993 12.0913L21.724 12.1245C21.929 12.4001 22.1904 12.8026 22.4231 13.3189C22.737 14.0152 23 14.9211 23 16.0002C23 17.1274 22.713 18.0656 22.3808 18.7733C22.1521 19.2607 21.9013 19.6404 21.7056 19.9004C21.5963 20.0456 21.4828 20.1886 21.3535 20.3171C21.1583 20.5107 20.8417 20.5107 20.6464 20.3171C20.4508 20.1231 20.4584 19.8104 20.6468 19.6155C20.7395 19.5189 20.8238 19.4141 20.9042 19.3073C21.0664 19.0918 21.2793 18.7703 21.4742 18.355C21.7567 17.753 22 16.9574 22 16.0002C22 15.0838 21.777 14.3156 21.5102 13.7236Z" fill="url(#paint1_radial_284_7291)"/>
</g>
<defs>
<radialGradient id="paint0_radial_284_7291" cx="0" cy="0" r="1" gradientUnits="userSpaceOnUse" gradientTransform="translate(14.5 16) rotate(90) scale(7 8.5)">
<stop stop-color="#FAFAFA"/>
<stop offset="1" stop-color="#D4DFED"/>
</radialGradient>
<radialGradient id="paint1_radial_284_7291" cx="0" cy="0" r="1" gradientUnits="userSpaceOnUse" gradientTransform="translate(14.5 16) rotate(90) scale(7 8.5)">
<stop stop-color="#FAFAFA"/>
<stop offset="1" stop-color="#D4DFED"/>
</radialGradient>
<clipPath id="clip0_284_7291">
<path d="M0 16C0 7.16344 7.16344 0 16 0C24.8366 0 32 7.16344 32 16C32 24.8366 24.8366 32 16 32C7.16344 32 0 24.8366 0 16Z" fill="white"/>
</clipPath>
</defs>
</svg>
