<svg width="24" height="24" viewBox="0 0 24 24" fill="none" xmlns="http://www.w3.org/2000/svg">
<path d="M20.1895 7.35093C19.8439 6.52535 19.4511 5.89479 19.1474 5.47342C19.1005 5.40839 19.0348 5.33365 18.9632 5.25221C18.6784 4.92815 18.3005 4.49822 18.6464 4.15382C19.122 3.68042 19.6301 4.41654 19.8881 4.79037C19.9148 4.82906 19.9389 4.86387 19.9599 4.89306C20.3005 5.36559 20.7332 6.06188 21.1125 6.96801C21.6007 8.13426 22 9.64742 22 11.4744C22 13.8122 21.3463 15.6352 20.6899 16.8752C20.3628 17.4932 20.0347 17.9669 19.7859 18.2888C19.7685 18.3114 19.75 18.3359 19.7305 18.3617C19.4835 18.6882 19.0778 19.2244 18.6464 18.7949C18.3101 18.4601 18.6068 18.125 18.8519 17.8482C18.9035 17.79 18.9528 17.7342 18.9934 17.6817C19.2124 17.3984 19.5082 16.9723 19.8052 16.4111C20.4004 15.2866 21 13.622 21 11.4744C21 9.79494 20.6335 8.41162 20.1895 7.35093Z" fill="white" fill-opacity="0.35"/>
<path d="M17.5102 9.68676C17.3118 9.24502 17.0898 8.90249 16.9194 8.67252C16.884 8.62489 16.8436 8.57572 16.8021 8.52521C16.582 8.25761 16.331 7.95238 16.6464 7.6384C17.0791 7.20768 17.4663 7.73231 17.6993 8.04805L17.724 8.08139C17.929 8.35803 18.1904 8.76214 18.4231 9.28051C18.737 9.97955 19 10.8891 19 11.9724C19 13.1041 18.713 14.0461 18.3808 14.7566C18.1521 15.2459 17.9013 15.6271 17.7056 15.8881C17.5963 16.0339 17.4828 16.1775 17.3535 16.3064C17.1583 16.5008 16.8417 16.5008 16.6464 16.3064C16.4508 16.1117 16.4584 15.7977 16.6468 15.6021C16.7395 15.5051 16.8238 15.3999 16.9042 15.2927C17.0664 15.0763 17.2793 14.7535 17.4742 14.3365C17.7567 13.7322 18 12.9334 18 11.9724C18 11.0524 17.777 10.2811 17.5102 9.68676Z" fill="white" fill-opacity="0.35"/>
<path fill-rule="evenodd" clip-rule="evenodd" d="M14 6.44037C14 5.22579 12.6209 4.51929 11.6281 5.22525L6.47015 8.89299C6.38535 8.95329 6.28375 8.9857 6.17953 8.9857H3.5C2.67157 8.9857 2 9.65426 2 10.479V13.4655C2 14.2902 2.67157 14.9588 3.5 14.9588H6.17953C6.28375 14.9588 6.38535 14.9912 6.47015 15.0515L11.6281 18.7192C12.6209 19.4252 14 18.7187 14 17.5041V6.44037ZM12.2094 6.03533C12.5403 5.80001 13 6.03551 13 6.44037V17.5041C13 17.909 12.5403 18.1445 12.2094 17.9091L7.05139 14.2414C6.79699 14.0605 6.49217 13.9633 6.17953 13.9633H3.5C3.22386 13.9633 3 13.7404 3 13.4655V10.479C3 10.2041 3.22386 9.98121 3.5 9.98121H6.17953C6.49217 9.98121 6.79699 9.88397 7.05139 9.70307L12.2094 6.03533Z" fill="white" fill-opacity="0.35"/>
</svg>
