<svg width="32" height="32" viewBox="0 0 32 32" fill="none" xmlns="http://www.w3.org/2000/svg">
<path d="M17 16C17 16.5523 16.5523 17 16 17C15.4477 17 15 16.5523 15 16C15 15.4477 15.4477 15 16 15C16.5523 15 17 15.4477 17 16Z" fill="url(#paint0_radial_284_2040)"/>
<path fill-rule="evenodd" clip-rule="evenodd" d="M23 16C23 19.866 19.866 23 16 23C12.134 23 9 19.866 9 16C9 12.134 12.134 9 16 9C19.866 9 23 12.134 23 16ZM18 16C18 17.1046 17.1046 18 16 18C14.8954 18 14 17.1046 14 16C14 14.8954 14.8954 14 16 14C17.1046 14 18 14.8954 18 16Z" fill="url(#paint1_radial_284_2040)"/>
<path fill-rule="evenodd" clip-rule="evenodd" d="M7 9C7 7.89543 7.89543 7 9 7H23C24.1046 7 25 7.89543 25 9V23C25 24.1046 24.1046 25 23 25H9C7.89543 25 7 24.1046 7 23V9ZM8 9C8 8.44772 8.44772 8 9 8H23C23.5523 8 24 8.44772 24 9V23C24 23.5523 23.5523 24 23 24H9C8.44772 24 8 23.5523 8 23V9Z" fill="url(#paint2_radial_284_2040)"/>
<defs>
<radialGradient id="paint0_radial_284_2040" cx="0" cy="0" r="1" gradientUnits="userSpaceOnUse" gradientTransform="translate(16 16) rotate(90) scale(9)">
<stop stop-color="#FAFAFA"/>
<stop offset="1" stop-color="#D4DFED"/>
</radialGradient>
<radialGradient id="paint1_radial_284_2040" cx="0" cy="0" r="1" gradientUnits="userSpaceOnUse" gradientTransform="translate(16 16) rotate(90) scale(9)">
<stop stop-color="#FAFAFA"/>
<stop offset="1" stop-color="#D4DFED"/>
</radialGradient>
<radialGradient id="paint2_radial_284_2040" cx="0" cy="0" r="1" gradientUnits="userSpaceOnUse" gradientTransform="translate(16 16) rotate(90) scale(9)">
<stop stop-color="#FAFAFA"/>
<stop offset="1" stop-color="#D4DFED"/>
</radialGradient>
</defs>
</svg>
